<?xml version="1.0" standalone="no"?><!DOCTYPE svg PUBLIC "-//W3C//DTD SVG 1.1//EN" "http://www.w3.org/Graphics/SVG/1.1/DTD/svg11.dtd"><svg t="1521707167181" class="icon" style="" viewBox="0 0 1024 1024" version="1.1" xmlns="http://www.w3.org/2000/svg" p-id="831" xmlns:xlink="http://www.w3.org/1999/xlink" width="32" height="32"><defs><style type="text/css"></style></defs><path d="M761.6 902H262.4c-37.8 0-68.6-30.8-68.6-68.6v-599c0-37.8 30.8-68.6 68.6-68.6h499.2c37.8 0 68.6 30.8 68.6 68.6v599c0 37.8-30.8 68.6-68.6 68.6zM262.4 203.1c-17.2 0-31.2 14-31.2 31.2v599c0 17.2 14 31.2 31.2 31.2h499.2c17.2 0 31.2-14 31.2-31.2v-599c0-17.2-14-31.2-31.2-31.2H262.4z" fill="#1574FF" p-id="832"></path><path d="M661.8 184.4v-12.5c0-27.5-22.5-49.9-49.9-49.9H412.2c-27.5 0-49.9 22.5-49.9 49.9v12.5h299.5z" fill="#1574FF" p-id="833"></path><path d="M686.7 371.6H462.1c-6.9 0-12.5-5.6-12.5-12.5s5.6-12.5 12.5-12.5h224.6c6.9 0 12.5 5.6 12.5 12.5s-5.6 12.5-12.5 12.5zM686.7 409H462.1c-6.9 0-12.5-5.6-12.5-12.5s5.6-12.5 12.5-12.5h224.6c6.9 0 12.5 5.6 12.5 12.5s-5.6 12.5-12.5 12.5zM337.3 340.4h74.9v74.9h-74.9z" fill="#FFE815" p-id="834"></path><path d="M686.7 521.4H462.1c-6.9 0-12.5-5.6-12.5-12.5s5.6-12.5 12.5-12.5h224.6c6.9 0 12.5 5.6 12.5 12.5s-5.6 12.5-12.5 12.5zM586.9 558.8H462.1c-6.9 0-12.5-5.6-12.5-12.5s5.6-12.5 12.5-12.5h124.8c6.9 0 12.5 5.6 12.5 12.5s-5.6 12.5-12.5 12.5z" fill="#FFE815" p-id="835"></path><path d="M337.3 490.2h74.9v74.9h-74.9z" fill="#FFE815" p-id="836"></path><path d="M686.7 671.1H462.1c-6.9 0-12.5-5.6-12.5-12.5s5.6-12.5 12.5-12.5h224.6c6.9 0 12.5 5.6 12.5 12.5s-5.6 12.5-12.5 12.5zM537 708.6h-74.9c-6.9 0-12.5-5.6-12.5-12.5s5.6-12.5 12.5-12.5H537c6.9 0 12.5 5.6 12.5 12.5s-5.6 12.5-12.5 12.5z" fill="#FFE815" p-id="837"></path><path d="M337.3 639.9h74.9v74.9h-74.9z" fill="#FFE815" p-id="838"></path></svg>