<?xml version="1.0" standalone="no"?><!DOCTYPE svg PUBLIC "-//W3C//DTD SVG 1.1//EN" "http://www.w3.org/Graphics/SVG/1.1/DTD/svg11.dtd"><svg t="1523505942747" class="icon" style="" viewBox="0 0 1024 1024" version="1.1" xmlns="http://www.w3.org/2000/svg" p-id="912" xmlns:xlink="http://www.w3.org/1999/xlink" width="200" height="200"><defs><style type="text/css"></style></defs><path d="M570.34567419 680.17282559m-203.35183503 0a203.35183502 203.35183502 0 1 0 406.70367006 0 203.35183502 203.35183502 0 1 0-406.70367006 0Z" fill="#B0E55C" p-id="913"></path><path d="M512 935.86416247c-131.27776692 0-249.68516453-82.37036355-295.1604694-205.06788426-46.33332948-122.69752071-10.29629546-262.55553383 88.37653591-348.35799587 6.86419697-6.00617233 17.16049241-5.14814772 23.16666474 1.71604924 6.00617233 6.86419697 5.14814772 17.16049241-1.71604924 23.16666475-88.37653589 77.22221583-120.12344685 202.49381041-78.93826509 311.46293716C288.9135987 829.46910953 395.30865164 903.25922689 512 903.25922689s223.0864013-73.79011734 264.27158308-182.75924415c41.18518177-109.8271514 9.43827083-235.09874599-78.93826509-311.46293718-6.86419697-6.00617233-7.72222158-16.30246778-1.71604924-23.16666475 6.00617233-6.86419697 16.30246778-7.72222158 23.16666474-1.71604923 98.67283134 85.80246203 133.85184078 226.51849978 88.37653591 348.35799585-45.4753049 120.98147146-163.88270251 203.35183502-295.1604694 203.35183504z" fill="#256782" p-id="914"></path><path d="M515.43209849 806.30244477c-9.43827083 0-16.30246778-6.86419697-16.30246778-16.30246778l-0.85802462-19.73456626c0-9.43827083 6.86419697-17.16049241 16.30246777-17.16049239 9.43827083 0 16.30246778 6.86419697 16.30246778 16.30246777l0.85802463 19.73456627c0.85802462 9.43827083-6.86419697 17.16049241-16.30246778 17.16049239zM507.70987691 483.68518754c-9.43827083 0-16.30246778-6.86419697-16.30246779-16.30246777l-0.85802462-21.45061555c0-9.43827083 6.86419697-17.16049241 16.30246778-17.16049238 9.43827083 0 17.16049241 6.86419697 17.1604924 16.30246777l0.85802461 21.45061549c0 9.43827083-6.86419697 16.30246778-17.16049238 17.16049244 0.85802462 0 0.85802462 0 0 0z" fill="#256782" p-id="915"></path><path d="M507.70987691 772.8394846c-48.04937876 0-82.37036355-30.88888633-91.80863439-40.32715717-6.00617233-6.86419697-6.00617233-17.16049241 0-24.02468937 6.86419697-6.00617233 17.16049241-6.00617233 24.02468937 0 5.14814772 6.00617233 35.17900942 34.32098481 75.5061666 30.03086172 18.01851702-1.71604925 54.91357571-12.01234468 63.4938219-38.61110792 5.14814772-16.30246778-0.85802462-37.7530833-13.72839392-52.33950184-15.44444316-17.16049241-36.89505866-19.73456627-60.91974805-22.30864013-26.59876323-2.57407386-57.48764957-6.00617233-78.08024045-33.46296018-17.16049241-22.30864012-22.30864012-54.05555109-12.01234468-79.79628971 14.58641855-38.61110791 59.20369881-54.05555109 94.38270822-53.19752647 42.04320639 1.71604925 68.64196964 28.31481246 78.08024046 39.46913256 6.00617233 6.86419697 5.14814772 17.16049241-1.71604923 23.16666474-6.86419697 6.00617233-17.16049241 5.14814772-23.16666475-1.71604925-5.14814772-6.00617233-24.88271399-26.59876323-54.05555108-28.31481246-24.02468937-0.85802462-53.19752647 9.43827083-61.77777269 31.74691094-6.00617233 14.58641855-2.57407386 34.32098481 7.72222159 47.19135413 11.15432006 14.58641855 28.31481246 17.16049241 55.77160033 20.59259089 27.45678784 2.57407386 59.20369881 6.00617233 83.22838819 33.46296018 20.59259088 23.16666475 29.17283709 56.62962496 20.59259086 84.0864128-12.87036929 41.18518177-57.48764957 59.20369881-91.80863436 62.63579729-6.86419697 1.71604925-10.29629546 1.71604925-13.72839392 1.71604925z" fill="#256782" p-id="916"></path><path d="M690.46912103 338.67902668H333.53087897c-9.43827083 0-16.30246778-7.72222158-16.3024678-16.30246778 0-9.43827083 7.72222158-16.30246778 16.3024678-16.30246779h356.93824206c9.43827083 0 16.30246778 7.72222158 16.3024678 16.30246779 0 9.43827083-6.86419697 16.30246778-16.3024678 16.30246778z" fill="#256782" p-id="917"></path><path d="M687.89504717 270.89508166c-1.71604925 0-3.43209849 0-5.14814772-0.85802461-8.5802462-2.57407386-13.72839391-12.01234468-10.29629545-21.4506155l39.46913254-119.26542222s0-0.85802462-0.85802463-1.71604924-0.85802462 0-1.71604923 0c-6.00617233 3.43209849-11.15432006 8.5802462-17.1604924 13.72839391-14.58641855 12.87036929-32.60493557 29.17283709-66.92592039 29.17283709s-52.33950186-16.30246778-66.92592041-29.17283709c-12.87036929-11.15432006-23.16666475-20.59259088-45.47530486-20.59259089-21.4506155 0-32.60493557 9.43827083-45.47530485 20.59259089-14.58641855 12.87036929-32.60493557 29.17283709-66.92592041 29.17283709s-52.33950186-16.30246778-66.92592039-29.17283709c-6.00617233-5.14814772-11.15432006-10.29629546-18.01851703-13.72839391 0 0-0.85802462-0.85802462-1.71604923 0s-0.85802462 0.85802462-0.85802462 1.71604924l36.89505865 120.12344684c2.57407386 8.5802462-2.57407386 18.01851702-11.15432006 20.59259088-8.5802462 2.57407386-18.01851702-2.57407386-20.59259087-11.15432005l-36.89505868-120.12344686c-4.29012309-13.72839391 0-28.31481246 11.15432005-37.75308331 11.15432006-9.43827083 26.59876323-10.29629546 39.46913254-2.57407384 9.43827083 5.14814772 16.30246778 11.15432006 23.16666474 17.1604924 12.87036929 11.15432006 23.16666475 20.59259088 45.4753049 20.5925909 21.4506155 0 32.60493557-9.43827083 45.47530486-20.5925909 14.58641855-12.87036929 32.60493557-29.17283709 66.9259204-29.17283709s52.33950186 16.30246778 66.92592038 29.17283709c12.87036929 11.15432006 23.16666475 20.59259088 45.47530489 20.5925909 21.4506155 0 32.60493557-9.43827083 45.47530488-20.5925909 6.86419697-6.00617233 13.72839391-12.01234468 22.30864013-17.1604924 12.87036929-7.72222158 28.31481246-6.00617233 39.46913253 2.57407384 11.15432006 9.43827083 15.44444316 24.02468937 11.15432008 37.75308331l-39.46913254 119.26542222c-2.57407386 8.5802462-9.43827083 12.87036929-16.3024678 12.8703693z" fill="#256782" p-id="918"></path></svg>