<?xml version="1.0" standalone="no"?><!DOCTYPE svg PUBLIC "-//W3C//DTD SVG 1.1//EN" "http://www.w3.org/Graphics/SVG/1.1/DTD/svg11.dtd"><svg t="1524138583690" class="icon" style="" viewBox="0 0 1024 1024" version="1.1" xmlns="http://www.w3.org/2000/svg" p-id="4520" xmlns:xlink="http://www.w3.org/1999/xlink" width="200" height="200"><defs><style type="text/css"></style></defs><path d="M291.84 453.12m-33.28 0a1.3 1.3 0 1 0 66.56 0 1.3 1.3 0 1 0-66.56 0Z" p-id="4521"></path><path d="M517.12 453.12m-33.28 0a1.3 1.3 0 1 0 66.56 0 1.3 1.3 0 1 0-66.56 0Z" p-id="4522"></path><path d="M739.84 453.12m-33.28 0a1.3 1.3 0 1 0 66.56 0 1.3 1.3 0 1 0-66.56 0Z" p-id="4523"></path><path d="M903.68 97.28 120.32 97.28C53.76 97.28 0 153.6 0 220.16l0 465.92c0 66.56 53.76 120.32 120.32 120.32L588.8 806.4l138.24 138.24c5.12 5.12 25.6 12.8 35.84 0 10.24-10.24 10.24-25.6 0-35.84 0 0-145.92-143.36-145.92-143.36-5.12-5.12-10.24-7.68-15.36-7.68l-481.28 0c-38.4 0-69.12-30.72-69.12-69.12L51.2 220.16c0-38.4 30.72-69.12 69.12-69.12l780.8 0c38.4 0 69.12 30.72 69.12 69.12l0 465.92c0 38.4-30.72 69.12-69.12 69.12l-148.48 0c-12.8 0-23.04 12.8-23.04 25.6s10.24 23.04 23.04 25.6l148.48 0c66.56 0 120.32-53.76 120.32-120.32L1021.44 220.16C1024 153.6 970.24 97.28 903.68 97.28z" p-id="4524"></path></svg>