<?xml version="1.0" standalone="no"?><!DOCTYPE svg PUBLIC "-//W3C//DTD SVG 1.1//EN" "http://www.w3.org/Graphics/SVG/1.1/DTD/svg11.dtd"><svg t="1522051785648" class="icon" style="" viewBox="0 0 1024 1024" version="1.1" xmlns="http://www.w3.org/2000/svg" p-id="831" xmlns:xlink="http://www.w3.org/1999/xlink" width="128" height="128"><defs><style type="text/css"></style></defs><path d="M722.5 902h-421c-37.5 0-68.1-30.5-68.1-68.1V190.1c0-37.5 30.5-68.1 68.1-68.1h421c37.5 0 68.1 30.5 68.1 68.1v643.8c0 37.6-30.6 68.1-68.1 68.1z m-421-742.9c-17.1 0-31 13.9-31 31v643.8c0 17.1 13.9 31 31 31h421c17.1 0 31-13.9 31-31V190.1c0-17.1-13.9-31-31-31h-421z" fill="#1574FF" p-id="832"></path><path d="M512 519.2c-32 0-57-18.7-57-42.7 0-6.8 5.5-12.4 12.4-12.4 6.8 0 12.4 5.5 12.4 12.4 0 8.4 13.8 17.9 32.3 17.9 18.5 0 32.3-9.4 32.3-17.9 0-8.4-13.8-17.9-32.3-17.9-32 0-57-18.7-57-42.6 0-23.9 25.1-42.6 57-42.6s57 18.7 57 42.6c0 6.8-5.5 12.4-12.4 12.4s-12.4-5.5-12.4-12.4c0-8.4-13.8-17.9-32.3-17.9-18.5 0-32.3 9.4-32.3 17.9s13.8 17.9 32.3 17.9c32 0 57 18.7 57 42.6s-25 42.7-57 42.7z" fill="#FFE815" p-id="833"></path><path d="M512 553.3c-6.8 0-12.4-5.5-12.4-12.4V359.3c0-6.8 5.5-12.4 12.4-12.4s12.4 5.5 12.4 12.4v181.6c0 6.8-5.6 12.4-12.4 12.4z" fill="#FFE815" p-id="834"></path><path d="M512 598.7c-81.9 0-148.6-66.7-148.6-148.6S430.1 301.5 512 301.5s148.6 66.7 148.6 148.6S593.9 598.7 512 598.7z m0-272.4c-68.3 0-123.8 55.5-123.8 123.8S443.7 573.9 512 573.9s123.8-55.5 123.8-123.8S580.3 326.3 512 326.3z" fill="#FFE815" p-id="835"></path><path d="M722.5 722.5h-421c-6.8 0-12.4-5.5-12.4-12.4v-520c0-6.8 5.5-12.4 12.4-12.4h421c6.8 0 12.4 5.5 12.4 12.4v520c0 6.8-5.6 12.4-12.4 12.4z m-408.6-24.8h396.2V202.5H313.9v495.2z" fill="#1574FF" p-id="836"></path><path d="M566.2 824.6h-99c-13.6 0-24.8-11.1-24.8-24.8 0-13.6 11.1-24.8 24.8-24.8h99c13.6 0 24.8 11.1 24.8 24.8-0.1 13.7-11.2 24.8-24.8 24.8z" fill="#1574FF" p-id="837"></path></svg>